<svg width="29" height="46" fill="none" xmlns="http://www.w3.org/2000/svg"><path d="M27.684 13.318h-4.38V7.103c0-3.917-2.65-7.103-5.905-7.103h-.37c-.925 0-1.802.258-2.583.717A5.072 5.072 0 0011.862 0C8.606 0 5.957 3.186 5.957 7.103v6.215H1.208L0 45.279h28.892l-1.208-31.962zM17.35 2.556c2.035 0 3.74 2.099 3.74 4.547v6.215h-3.322V7.103c0-1.658-.476-3.183-1.27-4.393 0 0 .122-.154.852-.154zm-2.904 1.38c.683.807 1.107 1.928 1.107 3.167v6.215H13.34V7.103c0-1.24.424-2.36 1.107-3.167zM8.17 7.103c0-2.448 1.656-4.44 3.691-4.44.18 0 .358.017.532.047-.794 1.21-1.27 2.735-1.27 4.393v6.215H8.171V7.103zM3.324 15.98h2.633v26.635h-3.64L3.324 15.98zm4.847 26.635V15.981h2.953v2.664h2.215V15.98h7.75v2.664h2.215V15.98h2.264l1.006 26.635H8.171z" fill="#000"/></svg>