<svg width="120" height="51" fill="none" xmlns="http://www.w3.org/2000/svg"><g clip-path="url(#clip0_265_3424)" fill="#212121"><path d="M97.738 51H95.66a.707.707 0 01-.701-.701v-19.35a6.328 6.328 0 016.327-6.327h11.93a6.326 6.326 0 016.328 6.328v4.925a6.329 6.329 0 01-6.328 6.31H102.67a.706.706 0 01-.701-.702v-2.09a.707.707 0 01.695-.707h11.966a1.403 1.403 0 001.402-1.402v-7.742a1.4 1.4 0 00-1.402-1.402H99.847a1.402 1.402 0 00-1.402 1.401v20.752a.707.707 0 01-.707.707zm-81.77 0h-9.64A6.34 6.34 0 010 44.666V25.323a.695.695 0 01.689-.7H2.81a.707.707 0 01.707.694v20.757a1.408 1.408 0 001.415 1.408h11.067a.709.709 0 01.72.695v2.11a.707.707 0 01-.707.707l-.044.006zm67.352 0H62.676a6.124 6.124 0 01-4.696-2.184L41.266 29.07a2.654 2.654 0 00-2.016-.93H25.112a1.408 1.408 0 00-1.408 1.401v16.533a1.408 1.408 0 001.408 1.408h14.715a1.414 1.414 0 001.086-.502l3.058-3.617a.7.7 0 01.987-.087l1.606 1.39a.7.7 0 01.087.986l-2.643 3.102A6.339 6.339 0 0139.176 51H26.52a6.334 6.334 0 01-6.334-6.334V30.95a6.34 6.34 0 016.334-6.328h12.73a6.16 6.16 0 014.703 2.177l16.706 19.728a2.636 2.636 0 002.016.937H84.73a1.408 1.408 0 001.402-1.408V29.542a1.402 1.402 0 00-1.402-1.402H62.104a1.397 1.397 0 00-1.073.496l-3.064 3.623a.7.7 0 01-.987.087l-1.613-1.371a.707.707 0 01-.087-.993l2.643-3.102a6.334 6.334 0 014.833-2.24H83.32a6.328 6.328 0 016.328 6.328v13.698A6.34 6.34 0 0183.32 51zm1.756-33.413h-10.9a.366.366 0 01-.353-.353v-2.81a.36.36 0 01.354-.354H85.43a.707.707 0 00.701-.701v-2.11a.705.705 0 00-.701-.713h-7.916a4.572 4.572 0 01-4.572-4.572V4.572A4.572 4.572 0 0177.514 0H87.54a.366.366 0 01.354.354v2.81a.36.36 0 01-.354.353H77.167a.707.707 0 00-.707.701v2.116a.707.707 0 00.707.7h7.91a4.572 4.572 0 014.572 4.573v1.42a4.572 4.572 0 01-4.573 4.573v-.013zM53.32 17.37l4.66-13.38a.689.689 0 01.663-.472h3.517a.701.701 0 01.664.472l4.678 13.381a.353.353 0 00.335.236h3.008a.353.353 0 00.354-.354.388.388 0 000-.118l-4.938-14.07A4.585 4.585 0 0061.918 0h-3.015a4.585 4.585 0 00-4.342 3.065l-4.963 14.05a.36.36 0 00.217.454.359.359 0 00.118 0h2.978a.353.353 0 00.41-.199zm-23.313 0l4.702-13.38a.701.701 0 01.62-.471h3.543a.701.701 0 01.664.471l4.696 13.381a.347.347 0 00.329.236h2.984a.36.36 0 00.328-.472l-4.962-14.05A4.566 4.566 0 0038.618 0h-3.04a4.566 4.566 0 00-4.343 3.065l-4.92 14.05a.354.354 0 00.33.472h2.984a.341.341 0 00.378-.217zM17.885 0h-2.109a2.817 2.817 0 00-2.519 1.557l-1.104 2.209a.354.354 0 01-.62 0l-1.104-2.209A2.817 2.817 0 007.909 0H5.802a2.81 2.81 0 00-2.73 2.264L.087 17.154a.354.354 0 00.28.415H3.2a.354.354 0 00.348-.286L6.079 3.79a.354.354 0 01.348-.285h.366a.354.354 0 01.317.192l1.923 3.19a2.122 2.122 0 001.811 1.016h2.016a2.11 2.11 0 001.806-1.017l1.923-3.164a.353.353 0 01.316-.192h.366a.354.354 0 01.348.285l2.53 13.5a.354.354 0 00.348.285h2.792a.353.353 0 00.353-.354.251.251 0 000-.068L20.658 2.289A2.804 2.804 0 0017.885 0z"/></g><defs><clipPath id="clip0_265_3424"><path fill="#fff" d="M0 0h119.544v51H0z"/></clipPath></defs></svg>